<svg xmlns="http://www.w3.org/2000/svg" viewBox="0 0 1268 794" width="1268" height="794" role="img" aria-label="Shape to Stroke: filled icons and the editable strokes recovered from them">
<style>.bg{fill:#f7f6f3}.cell{fill:#ffffff}.fill{fill:#1ab3e6}.stroke{fill:none;stroke:#c2410c}.title{font:600 20px -apple-system,Segoe UI,Helvetica,Arial,sans-serif;fill:#1d1d1f}.sub{font:14px -apple-system,Segoe UI,Helvetica,Arial,sans-serif;fill:#6b6b70}.label{font:14px -apple-system,Segoe UI,Helvetica,Arial,sans-serif;fill:#1d1d1f}</style>
<rect width="100%" height="100%" rx="16" class="bg"/>
<text x="28" y="36" class="title">Filled shapes (blue) become editable strokes (orange)</text>
<text x="28" y="56" class="sub">The 16 icons of the ICONS test comp. Drawn from the tool's own geometry, not an After Effects render.</text>
<rect x="28" y="70" width="130" height="130" rx="10" class="cell"/><rect x="174" y="70" width="130" height="130" rx="10" class="cell"/><g transform="translate(93.0 135.0) scale(0.5909)"><path d="M-64.00 84.00 C-64.00 84.00 -64.00 -6.66 -64.00 -6.66 C-64.00 -6.66 0.00 -70.66 0.00 -70.66 C0.00 -70.66 21.00 -49.66 21.00 -49.66 C21.00 -49.66 21.00 -66.00 21.00 -66.00 C21.00 -66.00 49.00 -66.00 49.00 -66.00 C49.00 -66.00 49.00 -21.66 49.00 -21.66 C49.00 -21.66 64.00 -6.66 64.00 -6.66 C64.00 -6.66 64.00 84.00 64.00 84.00 C64.00 84.00 -64.00 84.00 -64.00 84.00 Z M56.00 76.00 C56.00 76.00 56.00 -3.34 56.00 -3.34 C56.00 -3.34 41.00 -18.34 41.00 -18.34 C41.00 -18.34 41.00 -58.00 41.00 -58.00 C41.00 -58.00 29.00 -58.00 29.00 -58.00 C29.00 -58.00 29.00 -30.34 29.00 -30.34 C29.00 -30.34 0.00 -59.34 0.00 -59.34 C0.00 -59.34 -56.00 -3.34 -56.00 -3.34 C-56.00 -3.34 -56.00 76.00 -56.00 76.00 C-56.00 76.00 56.00 76.00 56.00 76.00 Z" class="fill"/><path d="M-19.00 80.00 C-19.00 80.00 -19.00 36.00 -19.00 36.00 C-19.00 36.00 19.00 36.00 19.00 36.00 C19.00 36.00 19.00 80.00 19.00 80.00 C19.00 80.00 11.00 80.00 11.00 80.00 C11.00 80.00 11.00 44.00 11.00 44.00 C11.00 44.00 -11.00 44.00 -11.00 44.00 C-11.00 44.00 -11.00 80.00 -11.00 80.00 C-11.00 80.00 -19.00 80.00 -19.00 80.00 Z" class="fill"/></g><g transform="translate(239.0 135.0) scale(0.5909)"><path d="M-60.00 80.00 C-60.00 80.00 -60.00 -5.00 -60.00 -5.00 C-60.00 -5.00 0.00 -65.00 0.00 -65.00 C0.00 -65.00 25.00 -40.00 25.00 -40.00 C25.00 -40.00 25.00 -62.00 25.00 -62.00 C25.00 -62.00 45.00 -62.00 45.00 -62.00 C45.00 -62.00 45.00 -20.00 45.00 -20.00 C45.00 -20.00 60.00 -5.00 60.00 -5.00 C60.00 -5.00 60.00 80.00 60.00 80.00 C60.00 80.00 -60.00 80.00 -60.00 80.00 Z" class="stroke" stroke-width="7.999999999999997" stroke-linecap="butt" stroke-linejoin="miter" stroke-miterlimit="7"/><path d="M15.00 80.00 C15.00 80.00 15.00 40.00 15.00 40.00 C15.00 40.00 -15.00 40.00 -15.00 40.00 C-15.00 40.00 -15.00 80.00 -15.00 80.00" class="stroke" stroke-width="8" stroke-linecap="butt" stroke-linejoin="miter" stroke-miterlimit="4"/></g><text x="28" y="222" class="label">House</text><rect x="340" y="70" width="130" height="130" rx="10" class="cell"/><rect x="486" y="70" width="130" height="130" rx="10" class="cell"/><g transform="translate(405.0 135.0) scale(0.5909)"><path d="M-54.34 -0.66 C-54.34 -0.66 -20.32 33.36 -20.32 33.36 C-20.32 33.36 59.04 -55.33 59.04 -55.33 C59.04 -55.33 70.96 -44.67 70.96 -44.67 C70.96 -44.67 -19.68 56.64 -19.68 56.64 C-19.68 56.64 -65.66 10.66 -65.66 10.66 C-65.66 10.66 -54.34 -0.66 -54.34 -0.66 Z" class="fill"/></g><g transform="translate(551.0 135.0) scale(0.5909)"><path d="M65.00 -50.00 C65.00 -50.00 -20.00 45.00 -20.00 45.00 C-20.00 45.00 -60.00 5.00 -60.00 5.00" class="stroke" stroke-width="15.999999999999998" stroke-linecap="butt" stroke-linejoin="miter" stroke-miterlimit="4"/></g><text x="340" y="222" class="label">Check mark</text><rect x="652" y="70" width="130" height="130" rx="10" class="cell"/><rect x="798" y="70" width="130" height="130" rx="10" class="cell"/><g transform="translate(717.0 135.0) scale(0.5909)"><path d="M-95.00 6.50 C-95.00 6.50 -52.26 6.50 -52.26 6.50 C-52.26 6.50 -31.25 -40.21 -31.25 -40.21 C-31.25 -40.21 -8.38 40.79 -8.38 40.79 C-8.38 40.79 17.60 -74.12 17.60 -74.12 C17.60 -74.12 40.64 6.50 40.64 6.50 C40.64 6.50 95.00 6.50 95.00 6.50 C95.00 6.50 95.00 13.50 95.00 13.50 C95.00 13.50 35.36 13.50 35.36 13.50 C35.36 13.50 18.40 -45.88 18.40 -45.88 C18.40 -45.88 -7.62 69.21 -7.62 69.21 C-7.62 69.21 -32.75 -19.79 -32.75 -19.79 C-32.75 -19.79 -47.74 13.50 -47.74 13.50 C-47.74 13.50 -95.00 13.50 -95.00 13.50 C-95.00 13.50 -95.00 6.50 -95.00 6.50 Z" class="fill"/></g><g transform="translate(863.0 135.0) scale(0.5909)"><path d="M95.00 10.00 C95.00 10.00 38.00 10.00 38.00 10.00 C38.00 10.00 18.00 -60.00 18.00 -60.00 C18.00 -60.00 -8.00 55.00 -8.00 55.00 C-8.00 55.00 -32.00 -30.00 -32.00 -30.00 C-32.00 -30.00 -50.00 10.00 -50.00 10.00 C-50.00 10.00 -95.00 10.00 -95.00 10.00" class="stroke" stroke-width="7.0000000000000036" stroke-linecap="butt" stroke-linejoin="miter" stroke-miterlimit="10"/></g><text x="652" y="222" class="label">Heartbeat</text><rect x="964" y="70" width="130" height="130" rx="10" class="cell"/><rect x="1110" y="70" width="130" height="130" rx="10" class="cell"/><g transform="translate(1029.0 135.0) scale(0.5909)"><path d="M-22.63 32.37 C-10.13 19.88 10.13 19.88 22.63 32.37 C25.36 35.11 25.36 39.54 22.63 42.27 C19.89 45.01 15.46 45.01 12.73 42.27 C5.70 35.24 -5.70 35.24 -12.73 42.27 C-15.46 45.01 -19.89 45.01 -22.63 42.27 C-25.36 39.54 -25.36 35.11 -22.63 32.37 Z" class="fill"/><path d="M-43.84 11.16 C-19.63 -13.05 19.63 -13.05 43.84 11.16 C46.57 13.89 46.57 18.33 43.84 21.06 C41.11 23.79 36.67 23.79 33.94 21.06 C15.20 2.31 -15.20 2.31 -33.94 21.06 C-36.67 23.79 -41.11 23.79 -43.84 21.06 C-46.57 18.33 -46.57 13.89 -43.84 11.16 Z" class="fill"/><path d="M-65.05 -10.05 C-29.13 -45.98 29.13 -45.98 65.05 -10.05 C67.79 -7.32 67.79 -2.89 65.05 -0.15 C62.32 2.58 57.89 2.58 55.15 -0.15 C24.69 -30.62 -24.69 -30.62 -55.15 -0.15 C-57.89 2.58 -62.32 2.58 -65.05 -0.15 C-67.79 -2.89 -67.79 -7.32 -65.05 -10.05 Z" class="fill"/></g><g transform="translate(1175.0 135.0) scale(0.5909)"><path d="M-17.68 37.32 C-7.91 27.56 7.91 27.56 17.68 37.32" class="stroke" stroke-width="13.999999999999996" stroke-linecap="round" stroke-linejoin="miter" stroke-miterlimit="4"/><path d="M-38.89 16.11 C-17.41 -5.37 17.41 -5.37 38.89 16.11" class="stroke" stroke-width="13.999999999999979" stroke-linecap="round" stroke-linejoin="miter" stroke-miterlimit="4"/><path d="M-60.10 -5.10 C-26.91 -38.30 26.91 -38.30 60.10 -5.10" class="stroke" stroke-width="13.999999999999972" stroke-linecap="round" stroke-linejoin="miter" stroke-miterlimit="4"/></g><text x="964" y="222" class="label">Wi-Fi</text><rect x="28" y="244" width="130" height="130" rx="10" class="cell"/><rect x="174" y="244" width="130" height="130" rx="10" class="cell"/><g transform="translate(93.0 309.0) scale(0.5909)"><path d="M0.00 -75.00 C41.42 -75.00 75.00 -41.42 75.00 0.00 C75.00 41.42 41.42 75.00 0.00 75.00 C-41.42 75.00 -75.00 41.42 -75.00 0.00 C-75.00 -41.42 -41.42 -75.00 0.00 -75.00 Z M-65.00 0.00 C-65.00 35.90 -35.90 65.00 0.00 65.00 C35.90 65.00 65.00 35.90 65.00 0.00 C65.00 -35.90 35.90 -65.00 0.00 -65.00 C-35.90 -65.00 -65.00 -35.90 -65.00 0.00 Z" class="fill"/><path d="M5.00 -40.00 C5.00 -40.00 5.00 0.00 5.00 0.00 C5.00 2.76 2.76 5.00 0.00 5.00 C-2.76 5.00 -5.00 2.76 -5.00 0.00 C-5.00 0.00 -5.00 -40.00 -5.00 -40.00 C-5.00 -42.76 -2.76 -45.00 -0.00 -45.00 C2.76 -45.00 5.00 -42.76 5.00 -40.00 Z" class="fill"/><path d="M0.00 -5.00 C0.00 -5.00 50.00 -5.00 50.00 -5.00 C52.76 -5.00 55.00 -2.76 55.00 0.00 C55.00 2.76 52.76 5.00 50.00 5.00 C50.00 5.00 0.00 5.00 0.00 5.00 C-2.76 5.00 -5.00 2.76 -5.00 0.00 C-5.00 -2.76 -2.76 -5.00 0.00 -5.00 Z" class="fill"/></g><g transform="translate(239.0 309.0) scale(0.5909)"><path d="M0.00 -70.00 C38.66 -70.00 70.00 -38.66 70.00 0.00 C70.00 38.66 38.66 70.00 0.00 70.00 C-38.66 70.00 -70.00 38.66 -70.00 0.00 C-70.00 -38.66 -38.66 -70.00 0.00 -70.00 Z" class="stroke" stroke-width="10" stroke-linecap="butt" stroke-linejoin="miter" stroke-miterlimit="4"/><path d="M-0.00 -40.00 C-0.00 -40.00 0.00 0.00 0.00 0.00" class="stroke" stroke-width="10" stroke-linecap="round" stroke-linejoin="miter" stroke-miterlimit="4"/><path d="M0.00 0.00 C0.00 0.00 50.00 0.00 50.00 0.00" class="stroke" stroke-width="10" stroke-linecap="round" stroke-linejoin="miter" stroke-miterlimit="4"/></g><text x="28" y="396" class="label">Clock</text><rect x="340" y="244" width="130" height="130" rx="10" class="cell"/><rect x="486" y="244" width="130" height="130" rx="10" class="cell"/><g transform="translate(405.0 309.0) scale(0.5909)"><path d="M-58.00 -39.00 C-58.00 -39.00 58.00 -39.00 58.00 -39.00 C66.84 -39.00 74.00 -31.84 74.00 -23.00 C74.00 -23.00 74.00 23.00 74.00 23.00 C74.00 31.84 66.84 39.00 58.00 39.00 C58.00 39.00 -58.00 39.00 -58.00 39.00 C-66.84 39.00 -74.00 31.84 -74.00 23.00 C-74.00 23.00 -74.00 -23.00 -74.00 -23.00 C-74.00 -31.84 -66.84 -39.00 -58.00 -39.00 Z M-66.00 -23.00 C-66.00 -23.00 -66.00 23.00 -66.00 23.00 C-66.00 27.42 -62.42 31.00 -58.00 31.00 C-58.00 31.00 58.00 31.00 58.00 31.00 C62.42 31.00 66.00 27.42 66.00 23.00 C66.00 23.00 66.00 -23.00 66.00 -23.00 C66.00 -27.42 62.42 -31.00 58.00 -31.00 C58.00 -31.00 -58.00 -31.00 -58.00 -31.00 C-62.42 -31.00 -66.00 -27.42 -66.00 -23.00 Z" class="fill"/><path d="M86.00 -9.00 C86.00 -9.00 86.00 9.00 86.00 9.00 C86.00 12.31 83.31 15.00 80.00 15.00 C76.69 15.00 74.00 12.31 74.00 9.00 C74.00 9.00 74.00 -9.00 74.00 -9.00 C74.00 -12.31 76.69 -15.00 80.00 -15.00 C83.31 -15.00 86.00 -12.31 86.00 -9.00 Z" class="fill"/><path d="M-36.00 -23.00 C-36.00 -23.00 -36.00 23.00 -36.00 23.00 C-36.00 23.00 -54.00 23.00 -54.00 23.00 C-54.00 23.00 -54.00 -23.00 -54.00 -23.00 C-54.00 -23.00 -36.00 -23.00 -36.00 -23.00 Z" class="fill"/><path d="M-11.00 -23.00 C-11.00 -23.00 -11.00 23.00 -11.00 23.00 C-11.00 23.00 -29.00 23.00 -29.00 23.00 C-29.00 23.00 -29.00 -23.00 -29.00 -23.00 C-29.00 -23.00 -11.00 -23.00 -11.00 -23.00 Z" class="fill"/><path d="M14.00 -23.00 C14.00 -23.00 14.00 23.00 14.00 23.00 C14.00 23.00 -4.00 23.00 -4.00 23.00 C-4.00 23.00 -4.00 -23.00 -4.00 -23.00 C-4.00 -23.00 14.00 -23.00 14.00 -23.00 Z" class="fill"/></g><g transform="translate(551.0 309.0) scale(0.5909)"><path d="M-58.00 -35.00 C-58.00 -35.00 58.00 -35.00 58.00 -35.00 C64.63 -35.00 70.00 -29.63 70.00 -23.00 C70.00 -23.00 70.00 23.00 70.00 23.00 C70.00 29.63 64.63 35.00 58.00 35.00 C58.00 35.00 -58.00 35.00 -58.00 35.00 C-64.63 35.00 -70.00 29.63 -70.00 23.00 C-70.00 23.00 -70.00 -23.00 -70.00 -23.00 C-70.00 -29.63 -64.63 -35.00 -58.00 -35.00 Z" class="stroke" stroke-width="8.000000000000002" stroke-linecap="butt" stroke-linejoin="miter" stroke-miterlimit="4"/><path d="M80.00 -9.00 C80.00 -9.00 80.00 9.00 80.00 9.00" class="stroke" stroke-width="12" stroke-linecap="round" stroke-linejoin="miter" stroke-miterlimit="4"/><path d="M-45.00 -23.00 C-45.00 -23.00 -45.00 23.00 -45.00 23.00" class="stroke" stroke-width="18" stroke-linecap="butt" stroke-linejoin="miter" stroke-miterlimit="4"/><path d="M-20.00 -23.00 C-20.00 -23.00 -20.00 23.00 -20.00 23.00" class="stroke" stroke-width="18" stroke-linecap="butt" stroke-linejoin="miter" stroke-miterlimit="4"/><path d="M5.00 -23.00 C5.00 -23.00 5.00 23.00 5.00 23.00" class="stroke" stroke-width="18" stroke-linecap="butt" stroke-linejoin="miter" stroke-miterlimit="4"/></g><text x="340" y="396" class="label">Battery</text><rect x="652" y="244" width="130" height="130" rx="10" class="cell"/><rect x="798" y="244" width="130" height="130" rx="10" class="cell"/><g transform="translate(717.0 309.0) scale(0.5909)"><path d="M-60.10 70.10 C-93.30 36.91 -93.30 -16.91 -60.10 -50.10 C-26.91 -83.30 26.91 -83.30 60.10 -50.10 C93.30 -16.91 93.30 36.91 60.10 70.10 C60.10 70.10 50.20 60.20 50.20 60.20 C77.93 32.48 77.93 -12.48 50.20 -40.20 C22.48 -67.93 -22.48 -67.93 -50.20 -40.20 C-77.93 -12.48 -77.93 32.48 -50.20 60.20 C-50.20 60.20 -60.10 70.10 -60.10 70.10 Z" class="fill"/><path d="M-5.00 10.16 C-5.00 10.16 30.56 -40.62 30.56 -40.62 C30.56 -40.62 37.12 -36.04 37.12 -36.04 C37.12 -36.04 1.56 14.75 1.56 14.75 C1.56 14.75 -5.00 10.16 -5.00 10.16 Z" class="fill"/></g><g transform="translate(863.0 309.0) scale(0.5909)"><path d="M-55.15 65.15 C-85.62 34.69 -85.62 -14.69 -55.15 -45.15 C-24.69 -75.62 24.69 -75.62 55.15 -45.15 C85.62 -14.69 85.62 34.69 55.15 65.15" class="stroke" stroke-width="14.000000000000014" stroke-linecap="butt" stroke-linejoin="miter" stroke-miterlimit="4"/><path d="M-1.72 12.46 C-1.72 12.46 33.84 -38.33 33.84 -38.33" class="stroke" stroke-width="8" stroke-linecap="butt" stroke-linejoin="miter" stroke-miterlimit="4"/></g><text x="652" y="396" class="label">Gauge</text><rect x="964" y="244" width="130" height="130" rx="10" class="cell"/><rect x="1110" y="244" width="130" height="130" rx="10" class="cell"/><g transform="translate(1029.0 309.0) scale(0.5909)"><path d="M30.12 -81.87 C30.12 -81.87 -18.03 -3.08 -18.03 -3.08 C-18.03 -3.08 41.97 -13.08 41.97 -13.08 C41.97 -13.08 -19.88 88.13 -19.88 88.13 C-19.88 88.13 -30.12 81.87 -30.12 81.87 C-30.12 81.87 18.03 3.08 18.03 3.08 C18.03 3.08 -41.97 13.08 -41.97 13.08 C-41.97 13.08 19.88 -88.13 19.88 -88.13 C19.88 -88.13 30.12 -81.87 30.12 -81.87 Z" class="fill"/></g><g transform="translate(1175.0 309.0) scale(0.5909)"><path d="M-25.00 85.00 C-25.00 85.00 30.00 -5.00 30.00 -5.00 C30.00 -5.00 -30.00 5.00 -30.00 5.00 C-30.00 5.00 25.00 -85.00 25.00 -85.00" class="stroke" stroke-width="12" stroke-linecap="butt" stroke-linejoin="miter" stroke-miterlimit="6"/></g><text x="964" y="396" class="label">Lightning</text><rect x="28" y="418" width="130" height="130" rx="10" class="cell"/><rect x="174" y="418" width="130" height="130" rx="10" class="cell"/><g transform="translate(93.0 483.0) scale(0.5909)"><path d="M-71.00 70.00 C-71.00 70.00 -71.00 -83.56 -71.00 -83.56 C-71.00 -83.56 0.00 14.75 0.00 14.75 C0.00 14.75 71.00 -83.56 71.00 -83.56 C71.00 -83.56 71.00 70.00 71.00 70.00 C71.00 70.00 59.00 70.00 59.00 70.00 C59.00 70.00 59.00 -46.44 59.00 -46.44 C59.00 -46.44 0.00 35.25 0.00 35.25 C0.00 35.25 -59.00 -46.44 -59.00 -46.44 C-59.00 -46.44 -59.00 70.00 -59.00 70.00 C-59.00 70.00 -71.00 70.00 -71.00 70.00 Z" class="fill"/></g><g transform="translate(239.0 483.0) scale(0.5909)"><path d="M65.00 70.00 C65.00 70.00 65.00 -65.00 65.00 -65.00 C65.00 -65.00 0.00 25.00 0.00 25.00 C0.00 25.00 -65.00 -65.00 -65.00 -65.00 C-65.00 -65.00 -65.00 70.00 -65.00 70.00" class="stroke" stroke-width="12.000000000000018" stroke-linecap="butt" stroke-linejoin="miter" stroke-miterlimit="8"/></g><text x="28" y="570" class="label">Letter M</text><rect x="340" y="418" width="130" height="130" rx="10" class="cell"/><rect x="486" y="418" width="130" height="130" rx="10" class="cell"/><g transform="translate(405.0 483.0) scale(0.5909)"><path d="M-81.00 -6.00 C-81.00 -6.00 59.00 -6.00 59.00 -6.00 C59.00 -6.00 59.00 6.00 59.00 6.00 C59.00 6.00 -81.00 6.00 -81.00 6.00 C-81.00 6.00 -81.00 -6.00 -81.00 -6.00 Z" class="fill"/><path d="M19.24 -49.24 C19.24 -49.24 68.49 0.00 68.49 0.00 C68.49 0.00 19.24 49.24 19.24 49.24 C19.24 49.24 10.76 40.76 10.76 40.76 C10.76 40.76 51.51 0.00 51.51 0.00 C51.51 0.00 10.76 -40.76 10.76 -40.76 C10.76 -40.76 19.24 -49.24 19.24 -49.24 Z" class="fill"/></g><g transform="translate(551.0 483.0) scale(0.5909)"><path d="M-81.00 0.00 C-81.00 0.00 59.00 0.00 59.00 0.00" class="stroke" stroke-width="12" stroke-linecap="butt" stroke-linejoin="miter" stroke-miterlimit="4"/><path d="M15.00 45.00 C15.00 45.00 60.00 0.00 60.00 0.00 C60.00 0.00 15.00 -45.00 15.00 -45.00" class="stroke" stroke-width="11.999999999999996" stroke-linecap="butt" stroke-linejoin="miter" stroke-miterlimit="4"/></g><text x="340" y="570" class="label">Arrow</text><rect x="652" y="418" width="130" height="130" rx="10" class="cell"/><rect x="798" y="418" width="130" height="130" rx="10" class="cell"/><g transform="translate(717.0 483.0) scale(0.5909)"><path d="M-94.00 -64.00 C-94.00 -64.00 94.00 -64.00 94.00 -64.00 C94.00 -64.00 94.00 34.00 94.00 34.00 C94.00 34.00 -8.06 34.00 -8.06 34.00 C-8.06 34.00 -44.00 79.52 -44.00 79.52 C-44.00 79.52 -44.00 34.00 -44.00 34.00 C-44.00 34.00 -94.00 34.00 -94.00 34.00 C-94.00 34.00 -94.00 -64.00 -94.00 -64.00 Z M-86.00 26.00 C-86.00 26.00 -36.00 26.00 -36.00 26.00 C-36.00 26.00 -36.00 56.48 -36.00 56.48 C-36.00 56.48 -11.94 26.00 -11.94 26.00 C-11.94 26.00 86.00 26.00 86.00 26.00 C86.00 26.00 86.00 -56.00 86.00 -56.00 C86.00 -56.00 -86.00 -56.00 -86.00 -56.00 C-86.00 -56.00 -86.00 26.00 -86.00 26.00 Z" class="fill"/></g><g transform="translate(863.0 483.0) scale(0.5909)"><path d="M-90.00 -60.00 C-90.00 -60.00 90.00 -60.00 90.00 -60.00 C90.00 -60.00 90.00 30.00 90.00 30.00 C90.00 30.00 -10.00 30.00 -10.00 30.00 C-10.00 30.00 -40.00 68.00 -40.00 68.00 C-40.00 68.00 -40.00 30.00 -40.00 30.00 C-40.00 30.00 -90.00 30.00 -90.00 30.00 C-90.00 30.00 -90.00 -60.00 -90.00 -60.00 Z" class="stroke" stroke-width="7.999999999999998" stroke-linecap="butt" stroke-linejoin="miter" stroke-miterlimit="8"/></g><text x="652" y="570" class="label">Speech bubble</text><rect x="964" y="418" width="130" height="130" rx="10" class="cell"/><rect x="1110" y="418" width="130" height="130" rx="10" class="cell"/><g transform="translate(1029.0 483.0) scale(0.5909)"><path d="M-26.00 -74.00 C-26.00 -74.00 26.00 -74.00 26.00 -74.00 C26.00 -74.00 26.00 -26.00 26.00 -26.00 C26.00 -26.00 74.00 -26.00 74.00 -26.00 C74.00 -26.00 74.00 26.00 74.00 26.00 C74.00 26.00 26.00 26.00 26.00 26.00 C26.00 26.00 26.00 74.00 26.00 74.00 C26.00 74.00 -26.00 74.00 -26.00 74.00 C-26.00 74.00 -26.00 26.00 -26.00 26.00 C-26.00 26.00 -74.00 26.00 -74.00 26.00 C-74.00 26.00 -74.00 -26.00 -74.00 -26.00 C-74.00 -26.00 -26.00 -26.00 -26.00 -26.00 C-26.00 -26.00 -26.00 -74.00 -26.00 -74.00 Z M-18.00 -18.00 C-18.00 -18.00 -66.00 -18.00 -66.00 -18.00 C-66.00 -18.00 -66.00 18.00 -66.00 18.00 C-66.00 18.00 -18.00 18.00 -18.00 18.00 C-18.00 18.00 -18.00 66.00 -18.00 66.00 C-18.00 66.00 18.00 66.00 18.00 66.00 C18.00 66.00 18.00 18.00 18.00 18.00 C18.00 18.00 66.00 18.00 66.00 18.00 C66.00 18.00 66.00 -18.00 66.00 -18.00 C66.00 -18.00 18.00 -18.00 18.00 -18.00 C18.00 -18.00 18.00 -66.00 18.00 -66.00 C18.00 -66.00 -18.00 -66.00 -18.00 -66.00 C-18.00 -66.00 -18.00 -18.00 -18.00 -18.00 Z" class="fill"/></g><g transform="translate(1175.0 483.0) scale(0.5909)"><path d="M-22.00 -70.00 C-22.00 -70.00 22.00 -70.00 22.00 -70.00 C22.00 -70.00 22.00 -22.00 22.00 -22.00 C22.00 -22.00 70.00 -22.00 70.00 -22.00 C70.00 -22.00 70.00 22.00 70.00 22.00 C70.00 22.00 22.00 22.00 22.00 22.00 C22.00 22.00 22.00 70.00 22.00 70.00 C22.00 70.00 -22.00 70.00 -22.00 70.00 C-22.00 70.00 -22.00 22.00 -22.00 22.00 C-22.00 22.00 -70.00 22.00 -70.00 22.00 C-70.00 22.00 -70.00 -22.00 -70.00 -22.00 C-70.00 -22.00 -22.00 -22.00 -22.00 -22.00 C-22.00 -22.00 -22.00 -70.00 -22.00 -70.00 Z" class="stroke" stroke-width="8" stroke-linecap="butt" stroke-linejoin="miter" stroke-miterlimit="4"/></g><text x="964" y="570" class="label">Plus</text><rect x="28" y="592" width="130" height="130" rx="10" class="cell"/><rect x="174" y="592" width="130" height="130" rx="10" class="cell"/><g transform="translate(93.0 657.0) scale(0.5909)"><path d="M-0.00 -85.26 C-0.00 -85.26 73.41 -61.50 73.41 -61.50 C73.41 -61.50 64.80 17.14 64.80 17.14 C64.80 17.14 0.00 89.49 0.00 89.49 C0.00 89.49 -64.80 17.14 -64.80 17.14 C-64.80 17.14 -73.41 -61.50 -73.41 -61.50 C-73.41 -61.50 -0.00 -85.26 -0.00 -85.26 Z M-62.59 -54.50 C-62.59 -54.50 -55.20 12.86 -55.20 12.86 C-55.20 12.86 -0.00 74.51 -0.00 74.51 C-0.00 74.51 55.20 12.86 55.20 12.86 C55.20 12.86 62.59 -54.50 62.59 -54.50 C62.59 -54.50 0.00 -74.74 0.00 -74.74 C0.00 -74.74 -62.59 -54.50 -62.59 -54.50 Z" class="fill"/></g><g transform="translate(239.0 657.0) scale(0.5909)"><path d="M0.00 -80.00 C0.00 -80.00 68.00 -58.00 68.00 -58.00 C68.00 -58.00 60.00 15.00 60.00 15.00 C60.00 15.00 -0.00 82.00 -0.00 82.00 C-0.00 82.00 -60.00 15.00 -60.00 15.00 C-60.00 15.00 -68.00 -58.00 -68.00 -58.00 C-68.00 -58.00 0.00 -80.00 0.00 -80.00 Z" class="stroke" stroke-width="10.000000000000004" stroke-linecap="butt" stroke-linejoin="miter" stroke-miterlimit="4"/></g><text x="28" y="744" class="label">Shield</text><rect x="340" y="592" width="130" height="130" rx="10" class="cell"/><rect x="486" y="592" width="130" height="130" rx="10" class="cell"/><g transform="translate(405.0 657.0) scale(0.5909)"><path d="M0.00 -79.00 C43.63 -79.00 79.00 -43.63 79.00 0.00 C79.00 43.63 43.63 79.00 0.00 79.00 C-43.63 79.00 -79.00 43.63 -79.00 0.00 C-79.00 -43.63 -43.63 -79.00 0.00 -79.00 Z M-71.00 0.00 C-71.00 39.21 -39.21 71.00 0.00 71.00 C39.21 71.00 71.00 39.21 71.00 0.00 C71.00 -39.21 39.21 -71.00 0.00 -71.00 C-39.21 -71.00 -71.00 -39.21 -71.00 0.00 Z" class="fill"/><path d="M-19.00 -27.00 C-19.00 -27.00 -19.00 -13.00 -19.00 -13.00 C-19.00 -9.69 -21.69 -7.00 -25.00 -7.00 C-28.31 -7.00 -31.00 -9.69 -31.00 -13.00 C-31.00 -13.00 -31.00 -27.00 -31.00 -27.00 C-31.00 -30.31 -28.31 -33.00 -25.00 -33.00 C-21.69 -33.00 -19.00 -30.31 -19.00 -27.00 Z" class="fill"/><path d="M31.00 -27.00 C31.00 -27.00 31.00 -13.00 31.00 -13.00 C31.00 -9.69 28.31 -7.00 25.00 -7.00 C21.69 -7.00 19.00 -9.69 19.00 -13.00 C19.00 -13.00 19.00 -27.00 19.00 -27.00 C19.00 -30.31 21.69 -33.00 25.00 -33.00 C28.31 -33.00 31.00 -30.31 31.00 -27.00 Z" class="fill"/><path d="M42.44 29.50 C33.68 44.66 17.51 54.00 0.00 54.00 C-17.51 54.00 -33.68 44.66 -42.44 29.50 C-44.09 26.63 -43.11 22.96 -40.24 21.30 C-37.37 19.65 -33.70 20.63 -32.04 23.50 C-25.43 34.95 -13.22 42.00 0.00 42.00 C13.22 42.00 25.43 34.95 32.04 23.50 C33.70 20.63 37.37 19.65 40.24 21.30 C43.11 22.96 44.09 26.63 42.44 29.50 Z" class="fill"/></g><g transform="translate(551.0 657.0) scale(0.5909)"><path d="M0.00 -75.00 C41.42 -75.00 75.00 -41.42 75.00 -0.00 C75.00 41.42 41.42 75.00 -0.00 75.00 C-41.42 75.00 -75.00 41.42 -75.00 -0.00 C-75.00 -41.42 -41.42 -75.00 0.00 -75.00 Z" class="stroke" stroke-width="8.000000000000014" stroke-linecap="butt" stroke-linejoin="miter" stroke-miterlimit="4"/><path d="M-25.00 -27.00 C-25.00 -27.00 -25.00 -13.00 -25.00 -13.00" class="stroke" stroke-width="12" stroke-linecap="round" stroke-linejoin="miter" stroke-miterlimit="4"/><path d="M25.00 -27.00 C25.00 -27.00 25.00 -13.00 25.00 -13.00" class="stroke" stroke-width="12" stroke-linecap="round" stroke-linejoin="miter" stroke-miterlimit="4"/><path d="M37.24 26.50 C29.56 39.80 15.36 48.00 0.00 48.00 C-15.36 48.00 -29.56 39.80 -37.24 26.50" class="stroke" stroke-width="12.000000000000007" stroke-linecap="round" stroke-linejoin="miter" stroke-miterlimit="4"/></g><text x="340" y="744" class="label">Smiley</text><rect x="652" y="592" width="130" height="130" rx="10" class="cell"/><rect x="798" y="592" width="130" height="130" rx="10" class="cell"/><g transform="translate(717.0 657.0) scale(0.5909)"><path d="M-53.00 -42.00 C-53.00 -42.00 53.00 -42.00 53.00 -42.00 C56.87 -42.00 60.00 -38.87 60.00 -35.00 C60.00 -31.13 56.87 -28.00 53.00 -28.00 C53.00 -28.00 -53.00 -28.00 -53.00 -28.00 C-56.87 -28.00 -60.00 -31.13 -60.00 -35.00 C-60.00 -38.87 -56.87 -42.00 -53.00 -42.00 Z" class="fill"/><path d="M-53.00 -7.00 C-53.00 -7.00 53.00 -7.00 53.00 -7.00 C56.87 -7.00 60.00 -3.87 60.00 0.00 C60.00 3.87 56.87 7.00 53.00 7.00 C53.00 7.00 -53.00 7.00 -53.00 7.00 C-56.87 7.00 -60.00 3.87 -60.00 0.00 C-60.00 -3.87 -56.87 -7.00 -53.00 -7.00 Z" class="fill"/><path d="M-53.00 28.00 C-53.00 28.00 53.00 28.00 53.00 28.00 C56.87 28.00 60.00 31.13 60.00 35.00 C60.00 38.87 56.87 42.00 53.00 42.00 C53.00 42.00 -53.00 42.00 -53.00 42.00 C-56.87 42.00 -60.00 38.87 -60.00 35.00 C-60.00 31.13 -56.87 28.00 -53.00 28.00 Z" class="fill"/></g><g transform="translate(863.0 657.0) scale(0.5909)"><path d="M-53.00 -35.00 C-53.00 -35.00 53.00 -35.00 53.00 -35.00" class="stroke" stroke-width="14" stroke-linecap="round" stroke-linejoin="miter" stroke-miterlimit="4"/><path d="M-53.00 0.00 C-53.00 0.00 53.00 0.00 53.00 0.00" class="stroke" stroke-width="14" stroke-linecap="round" stroke-linejoin="miter" stroke-miterlimit="4"/><path d="M-53.00 35.00 C-53.00 35.00 53.00 35.00 53.00 35.00" class="stroke" stroke-width="14" stroke-linecap="round" stroke-linejoin="miter" stroke-miterlimit="4"/></g><text x="652" y="744" class="label">Menu</text><rect x="964" y="592" width="130" height="130" rx="10" class="cell"/><rect x="1110" y="592" width="130" height="130" rx="10" class="cell"/><g transform="translate(1029.0 657.0) scale(0.5909)"><path d="M0.00 -74.00 C40.87 -74.00 74.00 -40.87 74.00 0.00 C74.00 40.87 40.87 74.00 0.00 74.00 C-40.87 74.00 -74.00 40.87 -74.00 0.00 C-74.00 -40.87 -40.87 -74.00 0.00 -74.00 Z M-66.00 0.00 C-66.00 36.45 -36.45 66.00 0.00 66.00 C36.45 66.00 66.00 36.45 66.00 0.00 C66.00 -36.45 36.45 -66.00 0.00 -66.00 C-36.45 -66.00 -66.00 -36.45 -66.00 0.00 Z" class="fill"/><path d="M-26.00 -41.96 C-26.00 -41.96 45.94 0.00 45.94 0.00 C45.94 0.00 -26.00 41.96 -26.00 41.96 C-26.00 41.96 -26.00 -41.96 -26.00 -41.96 Z M-18.00 28.04 C-18.00 28.04 30.06 0.00 30.06 0.00 C30.06 0.00 -18.00 -28.04 -18.00 -28.04 C-18.00 -28.04 -18.00 28.04 -18.00 28.04 Z" class="fill"/></g><g transform="translate(1175.0 657.0) scale(0.5909)"><path d="M0.00 -70.00 C38.66 -70.00 70.00 -38.66 70.00 0.00 C70.00 38.66 38.66 70.00 0.00 70.00 C-38.66 70.00 -70.00 38.66 -70.00 0.00 C-70.00 -38.66 -38.66 -70.00 0.00 -70.00 Z" class="stroke" stroke-width="8" stroke-linecap="butt" stroke-linejoin="miter" stroke-miterlimit="4"/><path d="M-22.00 -35.00 C-22.00 -35.00 38.00 0.00 38.00 0.00 C38.00 0.00 -22.00 35.00 -22.00 35.00 C-22.00 35.00 -22.00 -35.00 -22.00 -35.00 Z" class="stroke" stroke-width="7.999999999999991" stroke-linecap="butt" stroke-linejoin="miter" stroke-miterlimit="6"/></g><text x="964" y="744" class="label">Play</text>
</svg>
